<?xml version="1.0" encoding="UTF-8"?>
<svg id="Camada_2" data-name="Camada 2" xmlns="http://www.w3.org/2000/svg" viewBox="0 0 153.08 107.69">
  <defs>
    <style>
      .cls-1 {
        fill: #848186;
        stroke-width: 0px;
      }
    </style>
  </defs>
  <g id="Camada_1-2" data-name="Camada 1">
    <g>
      <polygon class="cls-1" points="118.42 49.3 113.54 49.3 113.54 59.65 118.42 59.65 118.71 59.65 123.56 59.65 123.56 49.3 118.71 49.3 118.42 49.3"/>
      <path class="cls-1" d="M147.75,0H5.33C2.39,0,0,2.49,0,5.56v96.57c0,3.06,2.39,5.56,5.33,5.56h142.42c1.46,0,2.79-.58,3.76-1.63l.14-.14.07-.1c.89-1,1.35-2.27,1.35-3.69V5.56c0-3.06-2.39-5.56-5.33-5.56ZM44.46,49.3h-5.17v10.34h5.17v8.99h-19.58v-8.99h5.14v-10.34h-5.14v-8.99h19.58v8.99ZM82.36,95.7h-10.87V10.26h10.87v85.44ZM138,49.3h-5.17v10.34h5.17v8.99h-38.86v-8.99h5.14v-10.34h-5.14v-8.99h38.86v8.99Z"/>
    </g>
  </g>
</svg>