<?xml version="1.0" encoding="UTF-8"?>
<svg id="Camada_2" data-name="Camada 2" xmlns="http://www.w3.org/2000/svg" viewBox="0 0 152.92 107.66">
  <defs>
    <style>
      .cls-1 {
        fill: #848186;
        stroke-width: 0px;
      }
    </style>
  </defs>
  <g id="Camada_1-2" data-name="Camada 1">
    <g>
      <path class="cls-1" d="M152.92,61.68c0-3.29-2.68-5.96-5.96-5.96H25.97c-.62,0-1.2.03-1.76.07-.31-.05-.6-.07-.9-.07-.82,0-1.63.18-2.39.51C8.77,58.63,0,69.27,0,81.69s8.77,23.05,20.92,25.46c.76.34,1.58.52,2.4.52.3,0,.6-.02.91-.07.54.04,1.13.07,1.75.07h116.24s4.74,0,4.74,0c3.29,0,5.96-2.68,5.96-5.96,0-2.87-2.04-5.27-4.74-5.84v-28.34c2.71-.56,4.74-2.97,4.74-5.84Z"/>
      <path class="cls-1" d="M148.18,40.14V11.8c2.71-.56,4.74-2.97,4.74-5.84,0-3.29-2.68-5.96-5.96-5.96H25.97c-.62,0-1.22.03-1.76.07-.31-.05-.6-.07-.9-.07-.82,0-1.63.18-2.39.51C8.77,2.92,0,13.56,0,25.97s8.77,23.05,20.92,25.46c.76.34,1.58.52,2.4.52.3,0,.6-.02.91-.08.55.04,1.13.07,1.75.07h116.24s4.74,0,4.74,0c3.29,0,5.96-2.68,5.96-5.96,0-2.87-2.04-5.27-4.74-5.84Z"/>
    </g>
  </g>
</svg>