<?xml version="1.0" encoding="UTF-8"?>
<svg id="Camada_2" data-name="Camada 2" xmlns="http://www.w3.org/2000/svg" viewBox="0 0 163.93 117.11">
  <defs>
    <style>
      .cls-1 {
        fill: #848186;
        stroke-width: 0px;
      }
    </style>
  </defs>
  <g id="Camada_1-2" data-name="Camada 1">
    <path class="cls-1" d="M159.13,46.97L116.96,4.8c-3.09-3.09-7.21-4.8-11.59-4.8s-8.4,1.67-11.48,4.7c-3.14,3.09-4.88,7.21-4.9,11.62-.02,4.41,1.69,8.55,4.8,11.66l14.18,14.18H16.39C7.35,42.16,0,49.51,0,58.56s7.35,16.39,16.39,16.39h91.58l-14.19,14.19c-3.11,3.11-4.82,7.26-4.8,11.66.02,4.4,1.76,8.53,4.9,11.62,3.08,3.03,7.16,4.7,11.48,4.7s8.49-1.71,11.59-4.8l42.17-42.17c3.1-3.1,4.8-7.21,4.8-11.59s-1.71-8.49-4.8-11.59Z"/>
  </g>
</svg>