<?xml version="1.0" encoding="UTF-8"?>
<svg id="Camada_2" data-name="Camada 2" xmlns="http://www.w3.org/2000/svg" viewBox="0 0 163.92 117.11">
  <defs>
    <style>
      .cls-1 {
        fill: #848186;
        stroke-width: 0px;
      }
    </style>
  </defs>
  <g id="Camada_1-2" data-name="Camada 1">
    <path class="cls-1" d="M147.53,42.16H55.95l14.19-14.19c3.11-3.11,4.82-7.26,4.8-11.66-.02-4.4-1.76-8.53-4.9-11.62-3.08-3.03-7.16-4.7-11.48-4.7s-8.49,1.71-11.59,4.8L4.79,46.97c-6.39,6.39-6.39,16.79,0,23.17l42.17,42.17c3.1,3.09,7.21,4.8,11.59,4.8,4.32,0,8.4-1.67,11.48-4.7,3.14-3.09,4.88-7.21,4.9-11.62.02-4.41-1.69-8.55-4.8-11.66l-14.18-14.18h91.58c9.04,0,16.39-7.35,16.39-16.4s-7.35-16.39-16.39-16.39Z"/>
  </g>
</svg>